{
  "accessors": [
    {
      "bufferView": 2,
      "componentType": 5126,
      "count": 206,
      "max": [
        0.027836799621582031,
        0.30673500895500183,
        0.093827597796916962
      ],
      "min": [
        -0.029745899140834808,
        0.24810799956321716,
        -0.17448599636554718
      ],
      "type": "VEC3"
    },
    {
      "bufferView": 2,
      "byteOffset": 2472,
      "componentType": 5126,
      "count": 206,
      "max": [
        0.88482940196990967,
        0.88478785753250122,
        1
      ],
      "min": [
        -0.88482940196990967,
        -0.88474678993225098,
        -1
      ],
      "type": "VEC3"
    },
    {
      "bufferView": 3,
      "componentType": 5126,
      "count": 206,
      "max": [
        0.99999904632568359,
        0.27014720439910889,
        0.88482749462127686,
        1
      ],
      "min": [
        -1,
        -0.27169716358184814,
        -0.88482749462127686,
        1
      ],
      "type": "VEC4"
    },
    {
      "bufferView": 1,
      "componentType": 5126,
      "count": 206,
      "max": [
        0.99769097566604614,
        0.74862802028656006
      ],
      "min": [
        0.0026400000788271427,
        0.25059899687767029
      ],
      "type": "VEC2"
    },
    {
      "bufferView": 0,
      "componentType": 5125,
      "count": 972,
      "max": [
        205
      ],
      "min": [
        0
      ],
      "type": "SCALAR"
    },
    {
      "bufferView": 2,
      "byteOffset": 4944,
      "componentType": 5126,
      "count": 1661,
      "max": [
        0.047549601644277573,
        0.32503199577331543,
        0.097186103463172913
      ],
      "min": [
        -0.040672700852155685,
        0.2306939959526062,
        -0.18360200524330139
      ],
      "type": "VEC3"
    },
    {
      "bufferView": 2,
      "byteOffset": 24876,
      "componentType": 5126,
      "count": 1661,
      "max": [
        1,
        1,
        1
      ],
      "min": [
        -1,
        -1,
        -1
      ],
      "type": "VEC3"
    },
    {
      "bufferView": 3,
      "byteOffset": 3296,
      "componentType": 5126,
      "count": 1661,
      "max": [
        1,
        1,
        1,
        1
      ],
      "min": [
        -1,
        -1,
        -1,
        1
      ],
      "type": "VEC4"
    },
    {
      "bufferView": 1,
      "byteOffset": 1648,
      "componentType": 5126,
      "count": 1661,
      "max": [
        0.99616700410842896,
        0.99819201231002808
      ],
      "min": [
        0.0012839999981224537,
        0.0025210001040250063
      ],
      "type": "VEC2"
    },
    {
      "bufferView": 0,
      "byteOffset": 3888,
      "componentType": 5125,
      "count": 4950,
      "max": [
        1660
      ],
      "min": [
        0
      ],
      "type": "SCALAR"
    },
    {
      "bufferView": 2,
      "byteOffset": 44808,
      "componentType": 5126,
      "count": 378,
      "max": [
        0.040463898330926895,
        0.080369800329208374,
        -0.57901597023010254
      ],
      "min": [
        -0.042371198534965515,
        -0.13694700598716736,
        -0.84084600210189819
      ],
      "type": "VEC3"
    },
    {
      "bufferView": 2,
      "byteOffset": 49344,
      "componentType": 5126,
      "count": 378,
      "max": [
        1,
        1,
        1
      ],
      "min": [
        -1,
        -1,
        -1
      ],
      "type": "VEC3"
    },
    {
      "bufferView": 3,
      "byteOffset": 29872,
      "componentType": 5126,
      "count": 378,
      "max": [
        1,
        1,
        1,
        1
      ],
      "min": [
        -1,
        -0.99999052286148071,
        -1,
        1
      ],
      "type": "VEC4"
    },
    {
      "bufferView": 1,
      "byteOffset": 14936,
      "componentType": 5126,
      "count": 378,
      "max": [
        0.99742501974105835,
        0.99852502346038818
      ],
      "min": [
        0.0034799999557435513,
        0.0015539999585598707
      ],
      "type": "VEC2"
    },
    {
      "bufferView": 0,
      "byteOffset": 23688,
      "componentType": 5125,
      "count": 1152,
      "max": [
        377
      ],
      "min": [
        0
      ],
      "type": "SCALAR"
    },
    {
      "bufferView": 2,
      "byteOffset": 53880,
      "componentType": 5126,
      "count": 3471,
      "max": [
        0.063354402780532837,
        0.12780100107192993,
        0.50487899780273438
      ],
      "min": [
        -0.065224796533584595,
        -0.098273500800132751,
        -0.040149200707674026
      ],
      "type": "VEC3"
    },
    {
      "bufferView": 2,
      "byteOffset": 95532,
      "componentType": 5126,
      "count": 3471,
      "max": [
        1,
        1,
        1
      ],
      "min": [
        -1,
        -1,
        -1
      ],
      "type": "VEC3"
    },
    {
      "bufferView": 3,
      "byteOffset": 35920,
      "componentType": 5126,
      "count": 3471,
      "max": [
        1,
        1,
        1,
        1
      ],
      "min": [
        -1,
        -1,
        -1,
        1
      ],
      "type": "VEC4"
    },
    {
      "bufferView": 1,
      "byteOffset": 17960,
      "componentType": 5126,
      "count": 3471,
      "max": [
        0.99977600574493408,
        0.99712198972702026
      ],
      "min": [
        0.00039900001138448715,
        0.0026340000331401825
      ],
      "type": "VEC2"
    },
    {
      "bufferView": 0,
      "byteOffset": 28296,
      "componentType": 5125,
      "count": 14736,
      "max": [
        3470
      ],
      "min": [
        0
      ],
      "type": "SCALAR"
    },
    {
      "bufferView": 2,
      "byteOffset": 137184,
      "componentType": 5126,
      "count": 5829,
      "max": [
        0.065224796533584595,
        0.17250099778175354,
        -0.00069388700649142265
      ],
      "min": [
        -0.047955598682165146,
        -0.24549500644207001,
        -1
      ],
      "type": "VEC3"
    },
    {
      "bufferView": 2,
      "byteOffset": 207132,
      "componentType": 5126,
      "count": 5829,
      "max": [
        1,
        1,
        1
      ],
      "min": [
        -1,
        -1,
        -1
      ],
      "type": "VEC3"
    },
    {
      "bufferView": 3,
      "byteOffset": 91456,
      "componentType": 5126,
      "count": 5829,
      "max": [
        1,
        1,
        1,
        1
      ],
      "min": [
        -1,
        -1,
        -1,
        -1
      ],
      "type": "VEC4"
    },
    {
      "bufferView": 1,
      "byteOffset": 45728,
      "componentType": 5126,
      "count": 5829,
      "max": [
        0.99922901391983032,
        0.9924200177192688
      ],
      "min": [
        0.00037799999699927866,
        0.00074799999129027128
      ],
      "type": "VEC2"
    },
    {
      "bufferView": 0,
      "byteOffset": 87240,
      "componentType": 5125,
      "count": 21771,
      "max": [
        5828
      ],
      "min": [
        0
      ],
      "type": "SCALAR"
    },
    {
      "bufferView": 2,
      "byteOffset": 277080,
      "componentType": 5126,
      "count": 2679,
      "max": [
        0.038271799683570862,
        0.24549500644207001,
        0.47098898887634277
      ],
      "min": [
        -0.040157899260520935,
        0.096164301037788391,
        -0.19605399668216705
      ],
      "type": "VEC3"
    },
    {
      "bufferView": 2,
      "byteOffset": 309228,
      "componentType": 5126,
      "count": 2679,
      "max": [
        1,
        1,
        1
      ],
      "min": [
        -1,
        -1,
        -1
      ],
      "type": "VEC3"
    },
    {
      "bufferView": 3,
      "byteOffset": 184720,
      "componentType": 5126,
      "count": 2679,
      "max": [
        1,
        1,
        1,
        1
      ],
      "min": [
        -1,
        -1,
        -1,
        1
      ],
      "type": "VEC4"
    },
    {
      "bufferView": 1,
      "byteOffset": 92360,
      "componentType": 5126,
      "count": 2679,
      "max": [
        0.99879997968673706,
        0.99878799915313721
      ],
      "min": [
        0.00089600001228973269,
        0.00080899999011307955
      ],
      "type": "VEC2"
    },
    {
      "bufferView": 0,
      "byteOffset": 174324,
      "componentType": 5125,
      "count": 9954,
      "max": [
        2678
      ],
      "min": [
        0
      ],
      "type": "SCALAR"
    },
    {
      "bufferView": 2,
      "byteOffset": 341376,
      "componentType": 5126,
      "count": 725,
      "max": [
        0.023538399487733841,
        0.10810799896717072,
        1
      ],
      "min": [
        -0.02545740082859993,
        0.020949900150299072,
        0.44278299808502197
      ],
      "type": "VEC3"
    },
    {
      "bufferView": 2,
      "byteOffset": 350076,
      "componentType": 5126,
      "count": 725,
      "max": [
        1,
        1,
        1
      ],
      "min": [
        -1,
        -1,
        -1
      ],
      "type": "VEC3"
    },
    {
      "bufferView": 3,
      "byteOffset": 227584,
      "componentType": 5126,
      "count": 725,
      "max": [
        1,
        0.99914520978927612,
        1,
        1
      ],
      "min": [
        -1,
        -0.99914544820785522,
        -0.97070485353469849,
        1
      ],
      "type": "VEC4"
    },
    {
      "bufferView": 1,
      "byteOffset": 113792,
      "componentType": 5126,
      "count": 725,
      "max": [
        0.99722301959991455,
        0.99728798866271973
      ],
      "min": [
        0.0022410000674426556,
        0.0040040002204477787
      ],
      "type": "VEC2"
    },
    {
      "bufferView": 0,
      "byteOffset": 214140,
      "componentType": 5125,
      "count": 2214,
      "max": [
        724
      ],
      "min": [
        0
      ],
      "type": "SCALAR"
    }
  ],
  "asset": {
    "extras": {
      "author": "Noe.Vah (https://sketchfab.com/Noe.Vah)",
      "license": "CC-BY-NC-4.0 (http://creativecommons.org/licenses/by-nc/4.0/)",
      "source": "https://sketchfab.com/3d-models/halo-2-br55-heavy-barrel-service-rifle-0cdbc56ea00f4ed2b40f4183f1925e7d",
      "title": "Halo 2 - BR55 Heavy Barrel Service Rifle"
    },
    "generator": "Sketchfab-5.73.1",
    "version": "2.0"
  },
  "bufferViews": [
    {
      "buffer": 0,
      "byteLength": 222996,
      "byteOffset": 0,
      "name": "floatBufferViews",
      "target": 34963
    },
    {
      "buffer": 0,
      "byteLength": 119592,
      "byteOffset": 222996,
      "byteStride": 8,
      "name": "floatBufferViews",
      "target": 34962
    },
    {
      "buffer": 0,
      "byteLength": 358776,
      "byteOffset": 342588,
      "byteStride": 12,
      "name": "floatBufferViews",
      "target": 34962
    },
    {
      "buffer": 0,
      "byteLength": 239184,
      "byteOffset": 701364,
      "byteStride": 16,
      "name": "floatBufferViews",
      "target": 34962
    }
  ],
  "buffers": [
    {
      "byteLength": 940548,
      "uri": "scene.bin"
    }
  ],
  "images": [
    {
      "uri": "textures/Barrel_baseColor.png"
    },
    {
      "uri": "textures/Barrel_metallicRoughness.png"
    },
    {
      "uri": "textures/Barrel_normal.png"
    },
    {
      "uri": "textures/CarryHandle_baseColor.png"
    },
    {
      "uri": "textures/CarryHandle_metallicRoughness.png"
    },
    {
      "uri": "textures/CarryHandle_emissive.jpeg"
    },
    {
      "uri": "textures/CarryHandle_normal.png"
    },
    {
      "uri": "textures/Back_baseColor.png"
    },
    {
      "uri": "textures/Back_metallicRoughness.png"
    },
    {
      "uri": "textures/Back_normal.png"
    },
    {
      "uri": "textures/Front_baseColor.png"
    },
    {
      "uri": "textures/Front_metallicRoughness.png"
    },
    {
      "uri": "textures/Front_normal.png"
    },
    {
      "uri": "textures/Magazine_baseColor.png"
    },
    {
      "uri": "textures/Magazine_metallicRoughness.png"
    },
    {
      "uri": "textures/Magazine_normal.png"
    },
    {
      "uri": "textures/BR55_Scope_baseColor.png"
    },
    {
      "uri": "textures/BR55_Scope_metallicRoughness.png"
    },
    {
      "uri": "textures/BR55_Scope_emissive.jpeg"
    },
    {
      "uri": "textures/BR55_Scope_normal.png"
    },
    {
      "uri": "textures/BR55_ScopeLens_baseColor.png"
    },
    {
      "uri": "textures/BR55_ScopeLens_metallicRoughness.png"
    },
    {
      "uri": "textures/BR55_ScopeLens_emissive.jpeg"
    },
    {
      "uri": "textures/BR55_ScopeLens_normal.png"
    }
  ],
  "materials": [
    {
      "alphaMode": "BLEND",
      "doubleSided": true,
      "emissiveFactor": [
        0,
        0,
        0
      ],
      "name": "Barrel",
      "normalTexture": {
        "index": 2,
        "scale": 1,
        "texCoord": 0
      },
      "occlusionTexture": {
        "index": 1,
        "strength": 1,
        "texCoord": 0
      },
      "pbrMetallicRoughness": {
        "baseColorFactor": [
          1,
          1,
          1,
          1
        ],
        "baseColorTexture": {
          "index": 0,
          "texCoord": 0
        },
        "metallicFactor": 1,
        "metallicRoughnessTexture": {
          "index": 1,
          "texCoord": 0
        },
        "roughnessFactor": 1
      }
    },
    {
      "alphaMode": "BLEND",
      "doubleSided": true,
      "emissiveFactor": [
        1,
        1,
        1
      ],
      "emissiveTexture": {
        "index": 5,
        "texCoord": 0
      },
      "name": "CarryHandle",
      "normalTexture": {
        "index": 6,
        "scale": 1,
        "texCoord": 0
      },
      "occlusionTexture": {
        "index": 4,
        "strength": 1,
        "texCoord": 0
      },
      "pbrMetallicRoughness": {
        "baseColorFactor": [
          1,
          1,
          1,
          1
        ],
        "baseColorTexture": {
          "index": 3,
          "texCoord": 0
        },
        "metallicFactor": 1,
        "metallicRoughnessTexture": {
          "index": 4,
          "texCoord": 0
        },
        "roughnessFactor": 1
      }
    },
    {
      "alphaMode": "BLEND",
      "doubleSided": true,
      "emissiveFactor": [
        0,
        0,
        0
      ],
      "name": "Back",
      "normalTexture": {
        "index": 9,
        "scale": 1,
        "texCoord": 0
      },
      "occlusionTexture": {
        "index": 8,
        "strength": 1,
        "texCoord": 0
      },
      "pbrMetallicRoughness": {
        "baseColorFactor": [
          1,
          1,
          1,
          1
        ],
        "baseColorTexture": {
          "index": 7,
          "texCoord": 0
        },
        "metallicFactor": 1,
        "metallicRoughnessTexture": {
          "index": 8,
          "texCoord": 0
        },
        "roughnessFactor": 1
      }
    },
    {
      "alphaMode": "BLEND",
      "doubleSided": true,
      "emissiveFactor": [
        0,
        0,
        0
      ],
      "name": "Front",
      "normalTexture": {
        "index": 12,
        "scale": 1,
        "texCoord": 0
      },
      "occlusionTexture": {
        "index": 11,
        "strength": 1,
        "texCoord": 0
      },
      "pbrMetallicRoughness": {
        "baseColorFactor": [
          1,
          1,
          1,
          1
        ],
        "baseColorTexture": {
          "index": 10,
          "texCoord": 0
        },
        "metallicFactor": 1,
        "metallicRoughnessTexture": {
          "index": 11,
          "texCoord": 0
        },
        "roughnessFactor": 1
      }
    },
    {
      "alphaMode": "BLEND",
      "doubleSided": true,
      "emissiveFactor": [
        0,
        0,
        0
      ],
      "name": "Magazine",
      "normalTexture": {
        "index": 15,
        "scale": 1,
        "texCoord": 0
      },
      "occlusionTexture": {
        "index": 14,
        "strength": 1,
        "texCoord": 0
      },
      "pbrMetallicRoughness": {
        "baseColorFactor": [
          1,
          1,
          1,
          1
        ],
        "baseColorTexture": {
          "index": 13,
          "texCoord": 0
        },
        "metallicFactor": 1,
        "metallicRoughnessTexture": {
          "index": 14,
          "texCoord": 0
        },
        "roughnessFactor": 1
      }
    },
    {
      "alphaMode": "BLEND",
      "doubleSided": true,
      "emissiveFactor": [
        1,
        1,
        1
      ],
      "emissiveTexture": {
        "index": 18,
        "texCoord": 0
      },
      "name": "BR55_Scope",
      "normalTexture": {
        "index": 19,
        "scale": 1,
        "texCoord": 0
      },
      "occlusionTexture": {
        "index": 17,
        "strength": 1,
        "texCoord": 0
      },
      "pbrMetallicRoughness": {
        "baseColorFactor": [
          1,
          1,
          1,
          1
        ],
        "baseColorTexture": {
          "index": 16,
          "texCoord": 0
        },
        "metallicFactor": 1,
        "metallicRoughnessTexture": {
          "index": 17,
          "texCoord": 0
        },
        "roughnessFactor": 1
      }
    },
    {
      "alphaMode": "BLEND",
      "doubleSided": true,
      "emissiveFactor": [
        1,
        1,
        1
      ],
      "emissiveTexture": {
        "index": 22,
        "texCoord": 0
      },
      "name": "BR55_ScopeLens",
      "normalTexture": {
        "index": 23,
        "scale": 1,
        "texCoord": 0
      },
      "occlusionTexture": {
        "index": 21,
        "strength": 1,
        "texCoord": 0
      },
      "pbrMetallicRoughness": {
        "baseColorFactor": [
          1,
          1,
          1,
          1
        ],
        "baseColorTexture": {
          "index": 20,
          "texCoord": 0
        },
        "metallicFactor": 1,
        "metallicRoughnessTexture": {
          "index": 21,
          "texCoord": 0
        },
        "roughnessFactor": 1
      }
    }
  ],
  "meshes": [
    {
      "name": "defaultMaterial",
      "primitives": [
        {
          "attributes": {
            "NORMAL": 1,
            "POSITION": 0,
            "TANGENT": 2,
            "TEXCOORD_0": 3
          },
          "indices": 4,
          "material": 6,
          "mode": 4
        }
      ]
    },
    {
      "name": "defaultMaterial",
      "primitives": [
        {
          "attributes": {
            "NORMAL": 6,
            "POSITION": 5,
            "TANGENT": 7,
            "TEXCOORD_0": 8
          },
          "indices": 9,
          "material": 5,
          "mode": 4
        }
      ]
    },
    {
      "name": "defaultMaterial",
      "primitives": [
        {
          "attributes": {
            "NORMAL": 11,
            "POSITION": 10,
            "TANGENT": 12,
            "TEXCOORD_0": 13
          },
          "indices": 14,
          "material": 4,
          "mode": 4
        }
      ]
    },
    {
      "name": "defaultMaterial",
      "primitives": [
        {
          "attributes": {
            "NORMAL": 16,
            "POSITION": 15,
            "TANGENT": 17,
            "TEXCOORD_0": 18
          },
          "indices": 19,
          "material": 3,
          "mode": 4
        }
      ]
    },
    {
      "name": "defaultMaterial",
      "primitives": [
        {
          "attributes": {
            "NORMAL": 21,
            "POSITION": 20,
            "TANGENT": 22,
            "TEXCOORD_0": 23
          },
          "indices": 24,
          "material": 2,
          "mode": 4
        }
      ]
    },
    {
      "name": "defaultMaterial",
      "primitives": [
        {
          "attributes": {
            "NORMAL": 26,
            "POSITION": 25,
            "TANGENT": 27,
            "TEXCOORD_0": 28
          },
          "indices": 29,
          "material": 1,
          "mode": 4
        }
      ]
    },
    {
      "name": "defaultMaterial",
      "primitives": [
        {
          "attributes": {
            "NORMAL": 31,
            "POSITION": 30,
            "TANGENT": 32,
            "TEXCOORD_0": 33
          },
          "indices": 34,
          "material": 0,
          "mode": 4
        }
      ]
    }
  ],
  "nodes": [
    {
      "children": [
        1
      ],
      "name": "RootNode (gltf orientation matrix)",
      "rotation": [
        -0.70710678118654746,
        -0,
        -0,
        0.70710678118654757
      ]
    },
    {
      "children": [
        2
      ],
      "matrix": [
        0.99736517667770386,
        0.072544105350971222,
        0,
        0,
        -0.072447896003723145,
        0.99604249000549316,
        -0.051484361290931702,
        0,
        -0.0037348871119320393,
        0.051348712295293808,
        0.99867379665374756,
        0,
        -0.016742894425988197,
        -0.0044044493697583675,
        0.02744063176214695,
        1
      ],
      "name": "RootNode (model correction matrix)"
    },
    {
      "children": [
        3,
        5,
        7,
        9,
        11,
        13,
        15
      ],
      "matrix": [
        1,
        0,
        0,
        0,
        0,
        -4.3711390063094768e-08,
        0.999999999999999,
        0,
        0,
        -0.999999999999999,
        -4.3711390063094768e-08,
        0,
        0,
        0,
        0,
        1
      ],
      "name": "Collada visual scene group"
    },
    {
      "children": [
        4
      ],
      "name": "Replacement_black_lense:polySurface18"
    },
    {
      "mesh": 0,
      "name": "defaultMaterial"
    },
    {
      "children": [
        6
      ],
      "name": "Battle_rifle_scope_tube_replacement:Form802"
    },
    {
      "mesh": 1,
      "name": "defaultMaterial"
    },
    {
      "children": [
        8
      ],
      "name": "Magazine_Mag_LP"
    },
    {
      "mesh": 2,
      "name": "defaultMaterial"
    },
    {
      "children": [
        10
      ],
      "name": "Front_Front_LP"
    },
    {
      "mesh": 3,
      "name": "defaultMaterial"
    },
    {
      "children": [
        12
      ],
      "name": "Back_Chargin_handle_LP"
    },
    {
      "mesh": 4,
      "name": "defaultMaterial"
    },
    {
      "children": [
        14
      ],
      "name": "CarryHandle_Carry_handle_LP"
    },
    {
      "mesh": 5,
      "name": "defaultMaterial"
    },
    {
      "children": [
        16
      ],
      "name": "Barrel_HB_LP"
    },
    {
      "mesh": 6,
      "name": "defaultMaterial"
    }
  ],
  "samplers": [
    {
      "magFilter": 9729,
      "minFilter": 9987,
      "wrapS": 10497,
      "wrapT": 10497
    }
  ],
  "scene": 0,
  "scenes": [
    {
      "name": "OSG_Scene",
      "nodes": [
        0
      ]
    }
  ],
  "textures": [
    {
      "sampler": 0,
      "source": 0
    },
    {
      "sampler": 0,
      "source": 1
    },
    {
      "sampler": 0,
      "source": 2
    },
    {
      "sampler": 0,
      "source": 3
    },
    {
      "sampler": 0,
      "source": 4
    },
    {
      "sampler": 0,
      "source": 5
    },
    {
      "sampler": 0,
      "source": 6
    },
    {
      "sampler": 0,
      "source": 7
    },
    {
      "sampler": 0,
      "source": 8
    },
    {
      "sampler": 0,
      "source": 9
    },
    {
      "sampler": 0,
      "source": 10
    },
    {
      "sampler": 0,
      "source": 11
    },
    {
      "sampler": 0,
      "source": 12
    },
    {
      "sampler": 0,
      "source": 13
    },
    {
      "sampler": 0,
      "source": 14
    },
    {
      "sampler": 0,
      "source": 15
    },
    {
      "sampler": 0,
      "source": 16
    },
    {
      "sampler": 0,
      "source": 17
    },
    {
      "sampler": 0,
      "source": 18
    },
    {
      "sampler": 0,
      "source": 19
    },
    {
      "sampler": 0,
      "source": 20
    },
    {
      "sampler": 0,
      "source": 21
    },
    {
      "sampler": 0,
      "source": 22
    },
    {
      "sampler": 0,
      "source": 23
    }
  ]
}

